<svg width="1202" height="1048" fill="none" xmlns="http://www.w3.org/2000/svg"><g opacity=".3" stroke="#A9844B" stroke-width="1.5" stroke-linecap="round" stroke-linejoin="round"><path d="M424.43 606.969c-237.344 66.328-309.317 211.014-160.759 323.293C115.113 817.983-2.21 526.096 1.6 278.262c237.344-66.281 426.64 80.889 422.83 328.707Z"/><path d="M217.55 278.956C94.474 526.404 115.112 817.983 263.671 930.262m0 0c148.558 112.258 461.392 149.548 698.752 83.298 3.826-247.821-185.485-394.991-422.83-328.71-3.825 247.803-127.364 357.67-275.922 245.412Z"/><path d="M458.119 1016.47c.509-33.841-25.328-53.986-57.736-44.885m308.407 74.765c1.881-122.752-91.872-195.666-209.426-162.811"/><path d="M263.671 930.262c148.558 112.258 368.781 2.699 491.872-244.749"/><path d="M962.407 1013.53c237.343-66.332 309.333-211.049 160.773-323.312 7.71-495.667-371-790.007-845.689-657.444 148.558 112.278 265.912 404.134 262.086 652.045 237.345-66.281 426.656 80.889 422.83 328.711Z"/><path d="M755.544 685.513c123.107-247.448 102.437-539.088-46.121-651.351"/><path d="M406.784 969.996c77.434-21.595 130.326-124.34 132.794-285.177 131.282-36.665 247.864-8.021 325.205 66.837-183.419 210.921-452.554 290.864-601.112 178.606a224.404 224.404 0 0 0 39.272 23.77c4.489 2.174 10.597 4.812 15.286 6.493 6.602 2.391 15.549 5.168 22.32 7.05 1.481.447 36.789 10.057 66.235 2.421Z"/></g></svg>