<svg width="18" height="18" fill="none" xmlns="http://www.w3.org/2000/svg"><g clip-path="url(#a)"><path fill-rule="evenodd" clip-rule="evenodd" d="M8.692 15.636c-2.352 0-4.264-1.817-4.264-4.05V4.358c0-1.619 1.381-2.937 3.08-2.937 1.698 0 3.08 1.318 3.08 2.937l-.004 7.233c0 1.005-.851 1.824-1.896 1.824s-1.895-.819-1.895-1.824l.004-6.675a.71.71 0 0 1 .71-.71h.001a.71.71 0 0 1 .71.712l-.003 6.673c0 .221.211.402.473.402.261 0 .474-.18.474-.402l.004-7.234c0-.835-.744-1.514-1.659-1.514-.914 0-1.658.68-1.658 1.515v7.228c0 1.45 1.275 2.629 2.843 2.629s2.843-1.18 2.843-2.629V4.358a.71.71 0 1 1 1.422 0v7.228c0 2.233-1.913 4.05-4.265 4.05" fill="#A9844B"/></g><defs><clipPath id="a"><path fill="#fff" transform="translate(.164)" d="M0 0h17.058v17.058H0z"/></clipPath></defs></svg>